<svg version="1.1" viewBox="0.0 0.0 960.0 720.0" fill="none" stroke="none" stroke-linecap="square" stroke-miterlimit="10" xmlns:xlink="http://www.w3.org/1999/xlink" xmlns="http://www.w3.org/2000/svg"><clipPath id="p.0"><path d="m0 0l960.0 0l0 720.0l-960.0 0l0 -720.0z" clip-rule="nonzero"/></clipPath><g clip-path="url(#p.0)"><path fill="#69c9ff" d="m0 0l960.0 0l0 720.0l-960.0 0z" fill-rule="evenodd"/><path fill="#7cdfff" d="m-4.5984254 459.77692l0 0c0 -69.66617 56.47558 -126.141754 126.14173 -126.141754l0 0c33.454865 0 65.53952 13.289917 89.19568 36.946075c23.656158 23.656158 36.94606 55.740784 36.94606 89.19568l0 0c0 69.66614 -56.475586 126.14172 -126.14174 126.14172l0 0c-69.66615 0 -126.14173 -56.475586 -126.14173 -126.14172z" fill-rule="evenodd"/><path fill="#7cdfff" d="m232.31496 459.77692l0 0c0 -69.66617 56.47557 -126.141754 126.14174 -126.141754l0 0c33.454865 0 65.53952 13.289917 89.19568 36.946075c23.656158 23.656158 36.946045 55.740784 36.946045 89.19568l0 0c0 69.66614 -56.475586 126.14172 -126.14172 126.14172l0 0c-69.66617 0 -126.14174 -56.475586 -126.14174 -126.14172z" fill-rule="evenodd"/><path fill="#7cdfff" d="m471.063 459.77692l0 0c0 -69.66617 56.475586 -126.141754 126.14172 -126.141754l0 0c33.454895 0 65.53955 13.289917 89.19568 36.946075c23.656189 23.656158 36.946045 55.740784 36.946045 89.19568l0 0c0 69.66614 -56.475586 126.14172 -126.14172 126.14172l0 0c-69.66614 0 -126.14172 -56.475586 -126.14172 -126.14172z" fill-rule="evenodd"/><path fill="#7cdfff" d="m712.31494 459.77692l0 0c0 -69.66617 56.475586 -126.141754 126.14172 -126.141754l0 0c33.454895 0 65.53955 13.289917 89.19568 36.946075c23.656189 23.656158 36.946106 55.740784 36.946106 89.19568l0 0c0 69.66614 -56.475586 126.14172 -126.141785 126.14172l0 0c-69.66614 0 -126.14172 -56.475586 -126.14172 -126.14172z" fill-rule="evenodd"/><path fill="#7cdfff" d="m0 210.92126l960.0 0l0 258.04724l-960.0 0z" fill-rule="evenodd"/><path fill="#8cf4ff" d="m-4.5984254 356.82678l0 0c0 -69.66617 56.47558 -126.14174 126.14173 -126.14174l0 0c33.454865 0 65.53952 13.289886 89.19568 36.94606c23.656158 23.656158 36.94606 55.740814 36.94606 89.19568l0 0c0 69.66614 -56.475586 126.14172 -126.14174 126.14172l0 0c-69.66615 0 -126.14173 -56.475586 -126.14173 -126.14172z" fill-rule="evenodd"/><path fill="#8cf4ff" d="m232.31496 356.82678l0 0c0 -69.66617 56.47557 -126.14174 126.14174 -126.14174l0 0c33.454865 0 65.53952 13.289886 89.19568 36.94606c23.656158 23.656158 36.946045 55.740814 36.946045 89.19568l0 0c0 69.66614 -56.475586 126.14172 -126.14172 126.14172l0 0c-69.66617 0 -126.14174 -56.475586 -126.14174 -126.14172z" fill-rule="evenodd"/><path fill="#8cf4ff" d="m471.063 356.82678l0 0c0 -69.66617 56.475586 -126.14174 126.14172 -126.14174l0 0c33.454895 0 65.53955 13.289886 89.19568 36.94606c23.656189 23.656158 36.946045 55.740814 36.946045 89.19568l0 0c0 69.66614 -56.475586 126.14172 -126.14172 126.14172l0 0c-69.66614 0 -126.14172 -56.475586 -126.14172 -126.14172z" fill-rule="evenodd"/><path fill="#8cf4ff" d="m712.31494 356.82678l0 0c0 -69.66617 56.475586 -126.14174 126.14172 -126.14174l0 0c33.454895 0 65.53955 13.289886 89.19568 36.94606c23.656189 23.656158 36.946106 55.740814 36.946106 89.19568l0 0c0 69.66614 -56.475586 126.14172 -126.141785 126.14172l0 0c-69.66614 0 -126.14172 -56.475586 -126.14172 -126.14172z" fill-rule="evenodd"/><path fill="#8cf4ff" d="m0 107.97113l960.0 0l0 258.04724l-960.0 0z" fill-rule="evenodd"/><path fill="#a2fff3" d="m-4.5984254 248.85564l0 0c0 -69.66615 56.47558 -126.14172 126.14173 -126.14172l0 0c33.454865 0 65.53952 13.289886 89.19568 36.94606c23.656158 23.656158 36.94606 55.7408 36.94606 89.19566l0 0c0 69.66615 -56.475586 126.14174 -126.14174 126.14174l0 0c-69.66615 0 -126.14173 -56.475586 -126.14173 -126.14174z" fill-rule="evenodd"/><path fill="#a2fff3" d="m232.31496 248.85564l0 0c0 -69.66615 56.47557 -126.14172 126.14174 -126.14172l0 0c33.454865 0 65.53952 13.289886 89.19568 36.94606c23.656158 23.656158 36.946045 55.7408 36.946045 89.19566l0 0c0 69.66615 -56.475586 126.14174 -126.14172 126.14174l0 0c-69.66617 0 -126.14174 -56.475586 -126.14174 -126.14174z" fill-rule="evenodd"/><path fill="#a2fff3" d="m471.063 248.85564l0 0c0 -69.66615 56.475586 -126.14172 126.14172 -126.14172l0 0c33.454895 0 65.53955 13.289886 89.19568 36.94606c23.656189 23.656158 36.946045 55.7408 36.946045 89.19566l0 0c0 69.66615 -56.475586 126.14174 -126.14172 126.14174l0 0c-69.66614 0 -126.14172 -56.475586 -126.14172 -126.14174z" fill-rule="evenodd"/><path fill="#a2fff3" d="m712.31494 248.85564l0 0c0 -69.66615 56.475586 -126.14172 126.14172 -126.14172l0 0c33.454895 0 65.53955 13.289886 89.19568 36.94606c23.656189 23.656158 36.946106 55.7408 36.946106 89.19566l0 0c0 69.66615 -56.475586 126.14174 -126.141785 126.14174l0 0c-69.66614 0 -126.14172 -56.475586 -126.14172 -126.14174z" fill-rule="evenodd"/><path fill="#a2fff3" d="m0 0l960.0 0l0 258.04724l-960.0 0z" fill-rule="evenodd"/></g></svg>